<svg width="16" height="17" viewBox="0 0 16 17" fill="none" xmlns="http://www.w3.org/2000/svg">
<g clip-path="url(#clip0_190_1696)">
<path d="M7.66813 4.68165C5.51604 4.68165 3.78016 6.38497 3.78016 8.49669C3.78016 10.6084 5.51604 12.3117 7.66813 12.3117C9.82022 12.3117 11.5561 10.6084 11.5561 8.49669C11.5561 6.38497 9.82022 4.68165 7.66813 4.68165ZM7.66813 10.977C6.27739 10.977 5.14044 9.86466 5.14044 8.49669C5.14044 7.12872 6.27401 6.01642 7.66813 6.01642C9.06225 6.01642 10.1958 7.12872 10.1958 8.49669C10.1958 9.86466 9.05887 10.977 7.66813 10.977ZM12.622 4.5256C12.622 5.02032 12.2159 5.41544 11.7151 5.41544C11.211 5.41544 10.8083 5.017 10.8083 4.5256C10.8083 4.03419 11.2143 3.63575 11.7151 3.63575C12.2159 3.63575 12.622 4.03419 12.622 4.5256ZM15.1971 5.42872C15.1395 4.23673 14.8621 3.18087 13.9721 2.31095C13.0856 1.44103 12.0095 1.16876 10.7948 1.109C9.54275 1.03927 5.79013 1.03927 4.53813 1.109C3.32673 1.16544 2.25068 1.43771 1.36075 2.30763C0.47081 3.17755 0.196722 4.23341 0.135814 5.4254C0.0647546 6.65392 0.0647546 10.3361 0.135814 11.5647C0.193339 12.7567 0.47081 13.8125 1.36075 14.6824C2.25068 15.5524 3.32334 15.8246 4.53813 15.8844C5.79013 15.9541 9.54275 15.9541 10.7948 15.8844C12.0095 15.8279 13.0856 15.5557 13.9721 14.6824C14.8587 13.8125 15.1362 12.7567 15.1971 11.5647C15.2681 10.3361 15.2681 6.65724 15.1971 5.42872ZM13.5796 12.8828C13.3157 13.5336 12.8047 14.035 12.1381 14.2973C11.1399 14.6858 8.77125 14.5961 7.66813 14.5961C6.56502 14.5961 4.19298 14.6824 3.19814 14.2973C2.53492 14.0383 2.02397 13.5369 1.75665 12.8828C1.36075 11.9033 1.45211 9.57911 1.45211 8.49669C1.45211 7.41427 1.36413 5.08673 1.75665 4.11056C2.02059 3.45978 2.53154 2.95841 3.19814 2.69611C4.19636 2.30763 6.56502 2.39728 7.66813 2.39728C8.77125 2.39728 11.1433 2.31095 12.1381 2.69611C12.8013 2.95509 13.3123 3.45646 13.5796 4.11056C13.9755 5.09005 13.8842 7.41427 13.8842 8.49669C13.8842 9.57911 13.9755 11.9067 13.5796 12.8828Z" fill="white"/>
</g>
<defs>
<clipPath id="clip0_190_1696">
<rect width="15.1594" height="17" fill="white" transform="translate(0.085083)"/>
</clipPath>
</defs>
</svg>
