<svg width="17" height="16" viewBox="0 0 17 16" fill="none" xmlns="http://www.w3.org/2000/svg">
<g clip-path="url(#clip0_190_1700)">
<path d="M14.5929 4.74107C14.6032 4.88319 14.6032 5.02535 14.6032 5.16747C14.6032 9.50247 11.2687 14.4974 5.17412 14.4974C3.2965 14.4974 1.55229 13.9593 0.085083 13.0253C0.351856 13.0558 0.608334 13.0659 0.885372 13.0659C2.43463 13.0659 3.86081 12.5482 4.99969 11.6649C3.54275 11.6345 2.32179 10.6903 1.90111 9.39081C2.10633 9.42125 2.31152 9.44156 2.52701 9.44156C2.82454 9.44156 3.12211 9.40094 3.39911 9.32991C1.88062 9.02531 0.741705 7.70553 0.741705 6.11163V6.07103C1.18287 6.31469 1.69592 6.46697 2.23967 6.48725C1.34704 5.89841 0.762233 4.89335 0.762233 3.75628C0.762233 3.14716 0.926365 2.58878 1.21367 2.10147C2.84504 4.09131 5.29722 5.39078 8.04691 5.53294C7.99562 5.28928 7.96483 5.0355 7.96483 4.78169C7.96483 2.97457 9.4423 1.5025 11.2789 1.5025C12.233 1.5025 13.0949 1.89844 13.7003 2.53803C14.4492 2.39591 15.1674 2.12178 15.8036 1.74616C15.5573 2.5076 15.0341 3.14719 14.3466 3.55325C15.0136 3.48222 15.6599 3.29944 16.255 3.04566C15.8036 3.69538 15.2393 4.27403 14.5929 4.74107Z" fill="black"/>
</g>
<defs>
<clipPath id="clip0_190_1700">
<rect width="16.17" height="16" fill="white" transform="translate(0.085083)"/>
</clipPath>
</defs>
</svg>
